<?xml version="1.0" standalone="no"?>
<!DOCTYPE svg PUBLIC "-//W3C//DTD SVG 1.1//EN" "http://www.w3.org/Graphics/SVG/1.1/DTD/svg11.dtd">
<svg width="800" height="600" version="1.1" xmlns="http://www.w3.org/2000/svg">
<rect width="800" height="600" x="0" y="0" style="fill:rgb(238,238,238);stroke:none"/>
<rect width="800" height="600" x="0" y="0" style="fill:rgb(255,255,255);stroke:none"/>
<text x="2" y="566" fill="rgb(0,0,0)" font-family="Arial" font-size="12">0</text>
<text x="2" y="512" fill="rgb(0,0,0)" font-family="Arial" font-size="12">5000000</text>
<text x="2" y="457" fill="rgb(0,0,0)" font-family="Arial" font-size="12">1.0E7</text>
<text x="2" y="403" fill="rgb(0,0,0)" font-family="Arial" font-size="12">1.5E7</text>
<text x="2" y="348" fill="rgb(0,0,0)" font-family="Arial" font-size="12">2.0E7</text>
<text x="2" y="294" fill="rgb(0,0,0)" font-family="Arial" font-size="12">2.5E7</text>
<text x="2" y="239" fill="rgb(0,0,0)" font-family="Arial" font-size="12">3.0E7</text>
<text x="2" y="185" fill="rgb(0,0,0)" font-family="Arial" font-size="12">3.5E7</text>
<text x="2" y="130" fill="rgb(0,0,0)" font-family="Arial" font-size="12">4.0E7</text>
<text x="2" y="76" fill="rgb(0,0,0)" font-family="Arial" font-size="12">4.5E7</text>
<text x="262" y="30" fill="rgb(0,0,0)" font-family="Arial" font-size="12">Distribution of sequence lengths over all sequences</text>
<line x1="61" y1="560" x2="790" y2="560" stroke="rgb(0,0,0)" stroke-width="1"/>
<line x1="61" y1="560" x2="61" y2="40" stroke="rgb(0,0,0)" stroke-width="1"/>
<text x="330" y="595" fill="rgb(0,0,0)" font-family="Arial" font-size="12">Sequence Length (bp)</text>
<text x="56" y="575" fill="rgb(0,0,0)" font-family="Arial" font-size="12">90-91</text>
<rect width="27" height="520" x="88" y="40" style="fill:rgb(230,230,230);stroke:none"/>
<text x="110" y="575" fill="rgb(0,0,0)" font-family="Arial" font-size="12">94-95</text>
<rect width="27" height="520" x="142" y="40" style="fill:rgb(230,230,230);stroke:none"/>
<text x="164" y="575" fill="rgb(0,0,0)" font-family="Arial" font-size="12">98-99</text>
<rect width="27" height="520" x="196" y="40" style="fill:rgb(230,230,230);stroke:none"/>
<text x="210" y="575" fill="rgb(0,0,0)" font-family="Arial" font-size="12">102-103</text>
<rect width="27" height="520" x="250" y="40" style="fill:rgb(230,230,230);stroke:none"/>
<rect width="27" height="520" x="304" y="40" style="fill:rgb(230,230,230);stroke:none"/>
<text x="291" y="575" fill="rgb(0,0,0)" font-family="Arial" font-size="12">108-109</text>
<rect width="27" height="520" x="358" y="40" style="fill:rgb(230,230,230);stroke:none"/>
<text x="372" y="575" fill="rgb(0,0,0)" font-family="Arial" font-size="12">114-115</text>
<rect width="27" height="520" x="412" y="40" style="fill:rgb(230,230,230);stroke:none"/>
<rect width="27" height="520" x="466" y="40" style="fill:rgb(230,230,230);stroke:none"/>
<text x="453" y="575" fill="rgb(0,0,0)" font-family="Arial" font-size="12">120-121</text>
<rect width="27" height="520" x="520" y="40" style="fill:rgb(230,230,230);stroke:none"/>
<text x="534" y="575" fill="rgb(0,0,0)" font-family="Arial" font-size="12">126-127</text>
<rect width="27" height="520" x="574" y="40" style="fill:rgb(230,230,230);stroke:none"/>
<rect width="27" height="520" x="628" y="40" style="fill:rgb(230,230,230);stroke:none"/>
<text x="615" y="575" fill="rgb(0,0,0)" font-family="Arial" font-size="12">132-133</text>
<rect width="27" height="520" x="682" y="40" style="fill:rgb(230,230,230);stroke:none"/>
<text x="696" y="575" fill="rgb(0,0,0)" font-family="Arial" font-size="12">138-139</text>
<rect width="27" height="520" x="736" y="40" style="fill:rgb(230,230,230);stroke:none"/>
<line x1="61" y1="560" x2="790" y2="560" stroke="rgb(180,180,180)" stroke-width="1"/>
<line x1="61" y1="506" x2="790" y2="506" stroke="rgb(180,180,180)" stroke-width="1"/>
<line x1="61" y1="451" x2="790" y2="451" stroke="rgb(180,180,180)" stroke-width="1"/>
<line x1="61" y1="397" x2="790" y2="397" stroke="rgb(180,180,180)" stroke-width="1"/>
<line x1="61" y1="342" x2="790" y2="342" stroke="rgb(180,180,180)" stroke-width="1"/>
<line x1="61" y1="288" x2="790" y2="288" stroke="rgb(180,180,180)" stroke-width="1"/>
<line x1="61" y1="233" x2="790" y2="233" stroke="rgb(180,180,180)" stroke-width="1"/>
<line x1="61" y1="179" x2="790" y2="179" stroke="rgb(180,180,180)" stroke-width="1"/>
<line x1="61" y1="124" x2="790" y2="124" stroke="rgb(180,180,180)" stroke-width="1"/>
<line x1="61" y1="70" x2="790" y2="70" stroke="rgb(180,180,180)" stroke-width="1"/>
<line x1="74" y1="560" x2="101" y2="560" stroke="rgb(136,34,85)" stroke-width="1"/>
<line x1="101" y1="560" x2="128" y2="559" stroke="rgb(136,34,85)" stroke-width="1"/>
<line x1="128" y1="559" x2="155" y2="559" stroke="rgb(136,34,85)" stroke-width="1"/>
<line x1="155" y1="559" x2="182" y2="559" stroke="rgb(136,34,85)" stroke-width="1"/>
<line x1="182" y1="559" x2="209" y2="558" stroke="rgb(136,34,85)" stroke-width="1"/>
<line x1="209" y1="558" x2="236" y2="558" stroke="rgb(136,34,85)" stroke-width="1"/>
<line x1="236" y1="558" x2="263" y2="557" stroke="rgb(136,34,85)" stroke-width="1"/>
<line x1="263" y1="557" x2="290" y2="557" stroke="rgb(136,34,85)" stroke-width="1"/>
<line x1="290" y1="557" x2="317" y2="557" stroke="rgb(136,34,85)" stroke-width="1"/>
<line x1="317" y1="557" x2="344" y2="556" stroke="rgb(136,34,85)" stroke-width="1"/>
<line x1="344" y1="556" x2="371" y2="556" stroke="rgb(136,34,85)" stroke-width="1"/>
<line x1="371" y1="556" x2="398" y2="555" stroke="rgb(136,34,85)" stroke-width="1"/>
<line x1="398" y1="555" x2="425" y2="554" stroke="rgb(136,34,85)" stroke-width="1"/>
<line x1="425" y1="554" x2="452" y2="554" stroke="rgb(136,34,85)" stroke-width="1"/>
<line x1="452" y1="554" x2="479" y2="554" stroke="rgb(136,34,85)" stroke-width="1"/>
<line x1="479" y1="554" x2="506" y2="553" stroke="rgb(136,34,85)" stroke-width="1"/>
<line x1="506" y1="553" x2="533" y2="552" stroke="rgb(136,34,85)" stroke-width="1"/>
<line x1="533" y1="552" x2="560" y2="551" stroke="rgb(136,34,85)" stroke-width="1"/>
<line x1="560" y1="551" x2="587" y2="556" stroke="rgb(136,34,85)" stroke-width="1"/>
<line x1="587" y1="556" x2="614" y2="560" stroke="rgb(136,34,85)" stroke-width="1"/>
<line x1="614" y1="560" x2="641" y2="560" stroke="rgb(136,34,85)" stroke-width="1"/>
<line x1="641" y1="560" x2="668" y2="560" stroke="rgb(136,34,85)" stroke-width="1"/>
<line x1="668" y1="560" x2="695" y2="560" stroke="rgb(136,34,85)" stroke-width="1"/>
<line x1="695" y1="560" x2="722" y2="560" stroke="rgb(136,34,85)" stroke-width="1"/>
<line x1="722" y1="560" x2="749" y2="40" stroke="rgb(136,34,85)" stroke-width="1"/>
<line x1="749" y1="40" x2="776" y2="560" stroke="rgb(136,34,85)" stroke-width="1"/>
<rect width="130" height="23" x="660" y="40" style="fill:rgb(255,255,255);stroke:none"/>
<rect width="130" height="23" x="660" y="40" rx="0" ry="0" style="fill:none;stroke-width:1;stroke:rgb(192,192,192)"/>
<text x="663" y="55" fill="rgb(136,34,85)" font-family="Arial" font-size="12" font-weight="bold">Sequence Length</text>
</svg>
